<mxfile host="Electron" modified="2024-02-17T12:31:56.699Z" agent="Mozilla/5.0 (Windows NT 10.0; Win64; x64) AppleWebKit/537.36 (KHTML, like Gecko) draw.io/23.1.5 Chrome/120.0.6099.109 Electron/28.1.0 Safari/537.36" etag="an_BNPJLu-oSPa1ZeIlZ" version="23.1.5" type="device">
  <diagram id="C5RBs43oDa-KdzZeNtuy" name="Page-1">
    <mxGraphModel dx="1120" dy="572" grid="1" gridSize="10" guides="1" tooltips="1" connect="1" arrows="1" fold="1" page="1" pageScale="1" pageWidth="827" pageHeight="1169" background="none" math="0" shadow="0">
      <root>
        <mxCell id="WIyWlLk6GJQsqaUBKTNV-0" />
        <mxCell id="WIyWlLk6GJQsqaUBKTNV-1" parent="WIyWlLk6GJQsqaUBKTNV-0" />
        <mxCell id="bomawsoPxQ3AvJL3vk1d-0" value="&lt;b&gt;Estore&lt;/b&gt;" style="swimlane;fontStyle=0;childLayout=stackLayout;horizontal=1;startSize=26;fillColor=none;horizontalStack=0;resizeParent=1;resizeParentMax=0;resizeLast=0;collapsible=1;marginBottom=0;whiteSpace=wrap;html=1;" parent="WIyWlLk6GJQsqaUBKTNV-1" vertex="1">
          <mxGeometry x="200" width="150" height="90" as="geometry" />
        </mxCell>
        <mxCell id="bomawsoPxQ3AvJL3vk1d-1" value="- customer: Customer&lt;br&gt;- seller: Seller&lt;br&gt;- admin:Admin" style="text;strokeColor=none;fillColor=none;align=left;verticalAlign=top;spacingLeft=4;spacingRight=4;overflow=hidden;rotatable=0;points=[[0,0.5],[1,0.5]];portConstraint=eastwest;whiteSpace=wrap;html=1;" parent="bomawsoPxQ3AvJL3vk1d-0" vertex="1">
          <mxGeometry y="26" width="150" height="64" as="geometry" />
        </mxCell>
        <mxCell id="bomawsoPxQ3AvJL3vk1d-4" value="&lt;b&gt;User&lt;/b&gt;" style="swimlane;fontStyle=0;childLayout=stackLayout;horizontal=1;startSize=26;fillColor=none;horizontalStack=0;resizeParent=1;resizeParentMax=0;resizeLast=0;collapsible=1;marginBottom=0;whiteSpace=wrap;html=1;" parent="WIyWlLk6GJQsqaUBKTNV-1" vertex="1">
          <mxGeometry x="380" y="130" width="140" height="120" as="geometry" />
        </mxCell>
        <mxCell id="bomawsoPxQ3AvJL3vk1d-5" value="- age: int&lt;br&gt;- emailAddress: String&lt;br&gt;- homeAddress: String&lt;br&gt;- name: String&lt;br&gt;- password: String&lt;br&gt;- phone: String&lt;div&gt;&lt;br&gt;&lt;/div&gt;" style="text;strokeColor=none;fillColor=none;align=left;verticalAlign=top;spacingLeft=4;spacingRight=4;overflow=hidden;rotatable=0;points=[[0,0.5],[1,0.5]];portConstraint=eastwest;whiteSpace=wrap;html=1;" parent="bomawsoPxQ3AvJL3vk1d-4" vertex="1">
          <mxGeometry y="26" width="140" height="94" as="geometry" />
        </mxCell>
        <mxCell id="bomawsoPxQ3AvJL3vk1d-6" value="&lt;b&gt;Customer&lt;/b&gt;" style="swimlane;fontStyle=0;childLayout=stackLayout;horizontal=1;startSize=26;fillColor=none;horizontalStack=0;resizeParent=1;resizeParentMax=0;resizeLast=0;collapsible=1;marginBottom=0;whiteSpace=wrap;html=1;" parent="WIyWlLk6GJQsqaUBKTNV-1" vertex="1">
          <mxGeometry x="310" y="350" width="180" height="90" as="geometry" />
        </mxCell>
        <mxCell id="bomawsoPxQ3AvJL3vk1d-7" value="- billingInfo: BillingInformation&lt;br&gt;- cart: ShoppingList" style="text;strokeColor=none;fillColor=none;align=left;verticalAlign=top;spacingLeft=4;spacingRight=4;overflow=hidden;rotatable=0;points=[[0,0.5],[1,0.5]];portConstraint=eastwest;whiteSpace=wrap;html=1;" parent="bomawsoPxQ3AvJL3vk1d-6" vertex="1">
          <mxGeometry y="26" width="180" height="64" as="geometry" />
        </mxCell>
        <mxCell id="eEb9qLzGj0JwlWNOs8kG-47" style="edgeStyle=orthogonalEdgeStyle;rounded=0;orthogonalLoop=1;jettySize=auto;html=1;entryX=0.5;entryY=0;entryDx=0;entryDy=0;" edge="1" parent="WIyWlLk6GJQsqaUBKTNV-1" source="bomawsoPxQ3AvJL3vk1d-8" target="bomawsoPxQ3AvJL3vk1d-12">
          <mxGeometry relative="1" as="geometry" />
        </mxCell>
        <mxCell id="bomawsoPxQ3AvJL3vk1d-8" value="&lt;b&gt;ShoppingCart&lt;/b&gt;" style="swimlane;fontStyle=0;childLayout=stackLayout;horizontal=1;startSize=26;fillColor=none;horizontalStack=0;resizeParent=1;resizeParentMax=0;resizeLast=0;collapsible=1;marginBottom=0;whiteSpace=wrap;html=1;" parent="WIyWlLk6GJQsqaUBKTNV-1" vertex="1">
          <mxGeometry x="25" y="560" width="140" height="60" as="geometry" />
        </mxCell>
        <mxCell id="bomawsoPxQ3AvJL3vk1d-9" value="- items: List&amp;lt;Item&amp;gt;" style="text;strokeColor=none;fillColor=none;align=left;verticalAlign=top;spacingLeft=4;spacingRight=4;overflow=hidden;rotatable=0;points=[[0,0.5],[1,0.5]];portConstraint=eastwest;whiteSpace=wrap;html=1;" parent="bomawsoPxQ3AvJL3vk1d-8" vertex="1">
          <mxGeometry y="26" width="140" height="34" as="geometry" />
        </mxCell>
        <mxCell id="bomawsoPxQ3AvJL3vk1d-10" value="&lt;b&gt;Seller&lt;/b&gt;" style="swimlane;fontStyle=0;childLayout=stackLayout;horizontal=1;startSize=26;fillColor=none;horizontalStack=0;resizeParent=1;resizeParentMax=0;resizeLast=0;collapsible=1;marginBottom=0;whiteSpace=wrap;html=1;" parent="WIyWlLk6GJQsqaUBKTNV-1" vertex="1">
          <mxGeometry x="30" y="240" width="140" height="120" as="geometry" />
        </mxCell>
        <mxCell id="eEb9qLzGj0JwlWNOs8kG-53" style="edgeStyle=orthogonalEdgeStyle;rounded=0;orthogonalLoop=1;jettySize=auto;html=1;entryX=0.5;entryY=0;entryDx=0;entryDy=0;" edge="1" parent="WIyWlLk6GJQsqaUBKTNV-1" source="bomawsoPxQ3AvJL3vk1d-12" target="bomawsoPxQ3AvJL3vk1d-14">
          <mxGeometry relative="1" as="geometry" />
        </mxCell>
        <mxCell id="bomawsoPxQ3AvJL3vk1d-12" value="&lt;b&gt;Item&lt;/b&gt;" style="swimlane;fontStyle=0;childLayout=stackLayout;horizontal=1;startSize=26;fillColor=none;horizontalStack=0;resizeParent=1;resizeParentMax=0;resizeLast=0;collapsible=1;marginBottom=0;whiteSpace=wrap;html=1;" parent="WIyWlLk6GJQsqaUBKTNV-1" vertex="1">
          <mxGeometry y="680" width="190" height="120" as="geometry" />
        </mxCell>
        <mxCell id="bomawsoPxQ3AvJL3vk1d-13" value="- quantityOfProduct: int&lt;br&gt;- product: Product" style="text;strokeColor=none;fillColor=none;align=left;verticalAlign=top;spacingLeft=4;spacingRight=4;overflow=hidden;rotatable=0;points=[[0,0.5],[1,0.5]];portConstraint=eastwest;whiteSpace=wrap;html=1;" parent="bomawsoPxQ3AvJL3vk1d-12" vertex="1">
          <mxGeometry y="26" width="190" height="94" as="geometry" />
        </mxCell>
        <mxCell id="eEb9qLzGj0JwlWNOs8kG-56" style="edgeStyle=orthogonalEdgeStyle;rounded=0;orthogonalLoop=1;jettySize=auto;html=1;entryX=0.5;entryY=0;entryDx=0;entryDy=0;" edge="1" parent="WIyWlLk6GJQsqaUBKTNV-1" source="bomawsoPxQ3AvJL3vk1d-14" target="eEb9qLzGj0JwlWNOs8kG-49">
          <mxGeometry relative="1" as="geometry" />
        </mxCell>
        <mxCell id="bomawsoPxQ3AvJL3vk1d-14" value="&lt;b&gt;Product&lt;/b&gt;" style="swimlane;fontStyle=0;childLayout=stackLayout;horizontal=1;startSize=26;fillColor=none;horizontalStack=0;resizeParent=1;resizeParentMax=0;resizeLast=0;collapsible=1;marginBottom=0;whiteSpace=wrap;html=1;" parent="WIyWlLk6GJQsqaUBKTNV-1" vertex="1">
          <mxGeometry y="880" width="190" height="120" as="geometry" />
        </mxCell>
        <mxCell id="bomawsoPxQ3AvJL3vk1d-15" value="- id: int&lt;br&gt;- name: String&lt;br&gt;- price: Striing: double&lt;br&gt;- description: String&lt;br&gt;- category: ProductCategory" style="text;strokeColor=none;fillColor=none;align=left;verticalAlign=top;spacingLeft=4;spacingRight=4;overflow=hidden;rotatable=0;points=[[0,0.5],[1,0.5]];portConstraint=eastwest;whiteSpace=wrap;html=1;" parent="bomawsoPxQ3AvJL3vk1d-14" vertex="1">
          <mxGeometry y="26" width="190" height="94" as="geometry" />
        </mxCell>
        <mxCell id="eEb9qLzGj0JwlWNOs8kG-59" style="edgeStyle=orthogonalEdgeStyle;rounded=0;orthogonalLoop=1;jettySize=auto;html=1;entryX=0.5;entryY=0;entryDx=0;entryDy=0;" edge="1" parent="WIyWlLk6GJQsqaUBKTNV-1" source="bomawsoPxQ3AvJL3vk1d-18" target="bomawsoPxQ3AvJL3vk1d-20">
          <mxGeometry relative="1" as="geometry" />
        </mxCell>
        <mxCell id="bomawsoPxQ3AvJL3vk1d-18" value="&lt;b&gt;BillingInformation&lt;/b&gt;" style="swimlane;fontStyle=0;childLayout=stackLayout;horizontal=1;startSize=26;fillColor=none;horizontalStack=0;resizeParent=1;resizeParentMax=0;resizeLast=0;collapsible=1;marginBottom=0;whiteSpace=wrap;html=1;" parent="WIyWlLk6GJQsqaUBKTNV-1" vertex="1">
          <mxGeometry x="550" y="560" width="260" height="120" as="geometry" />
        </mxCell>
        <mxCell id="bomawsoPxQ3AvJL3vk1d-19" value="- phoneNumber: String&lt;br&gt;- receiverName: String&lt;br&gt;- deliveryAddress: String&lt;br&gt;- creditCardInformation: CreditCardInformation" style="text;strokeColor=none;fillColor=none;align=left;verticalAlign=top;spacingLeft=4;spacingRight=4;overflow=hidden;rotatable=0;points=[[0,0.5],[1,0.5]];portConstraint=eastwest;whiteSpace=wrap;html=1;" parent="bomawsoPxQ3AvJL3vk1d-18" vertex="1">
          <mxGeometry y="26" width="260" height="94" as="geometry" />
        </mxCell>
        <mxCell id="bomawsoPxQ3AvJL3vk1d-20" value="&lt;b&gt;CreditCardInformation&lt;/b&gt;" style="swimlane;fontStyle=0;childLayout=stackLayout;horizontal=1;startSize=26;fillColor=none;horizontalStack=0;resizeParent=1;resizeParentMax=0;resizeLast=0;collapsible=1;marginBottom=0;whiteSpace=wrap;html=1;" parent="WIyWlLk6GJQsqaUBKTNV-1" vertex="1">
          <mxGeometry x="585" y="760" width="190" height="120" as="geometry" />
        </mxCell>
        <mxCell id="bomawsoPxQ3AvJL3vk1d-21" value="- cvv: String&lt;br&gt;- cardExpirationDate: String&lt;br&gt;- creditCardNumber: String&lt;br&gt;- cardName: String&lt;br&gt;- cardType: CardType&amp;nbsp;" style="text;strokeColor=none;fillColor=none;align=left;verticalAlign=top;spacingLeft=4;spacingRight=4;overflow=hidden;rotatable=0;points=[[0,0.5],[1,0.5]];portConstraint=eastwest;whiteSpace=wrap;html=1;" parent="bomawsoPxQ3AvJL3vk1d-20" vertex="1">
          <mxGeometry y="26" width="190" height="94" as="geometry" />
        </mxCell>
        <mxCell id="eEb9qLzGj0JwlWNOs8kG-63" style="edgeStyle=orthogonalEdgeStyle;rounded=0;orthogonalLoop=1;jettySize=auto;html=1;entryX=0.5;entryY=0;entryDx=0;entryDy=0;" edge="1" parent="WIyWlLk6GJQsqaUBKTNV-1" source="bomawsoPxQ3AvJL3vk1d-22" target="bomawsoPxQ3AvJL3vk1d-24">
          <mxGeometry relative="1" as="geometry" />
        </mxCell>
        <mxCell id="bomawsoPxQ3AvJL3vk1d-22" value="&amp;lt;&amp;lt;enumeration&amp;gt;&amp;gt;&lt;br&gt;&lt;br&gt;CardType" style="swimlane;fontStyle=0;childLayout=stackLayout;horizontal=1;startSize=60;fillColor=none;horizontalStack=0;resizeParent=1;resizeParentMax=0;resizeLast=0;collapsible=1;marginBottom=0;whiteSpace=wrap;html=1;" parent="WIyWlLk6GJQsqaUBKTNV-1" vertex="1">
          <mxGeometry x="570" y="960" width="200" height="154" as="geometry" />
        </mxCell>
        <mxCell id="bomawsoPxQ3AvJL3vk1d-23" value="MASTER_CARD: Address&lt;br&gt;VISA_CARD: Address&lt;br&gt;VERVE_CARD: Address&lt;br&gt;AMERICA_EXPRESS: Address" style="text;strokeColor=none;fillColor=none;align=left;verticalAlign=top;spacingLeft=4;spacingRight=4;overflow=hidden;rotatable=0;points=[[0,0.5],[1,0.5]];portConstraint=eastwest;whiteSpace=wrap;html=1;" parent="bomawsoPxQ3AvJL3vk1d-22" vertex="1">
          <mxGeometry y="60" width="200" height="94" as="geometry" />
        </mxCell>
        <mxCell id="bomawsoPxQ3AvJL3vk1d-24" value="&lt;b&gt;Address&lt;/b&gt;" style="swimlane;fontStyle=0;childLayout=stackLayout;horizontal=1;startSize=26;fillColor=none;horizontalStack=0;resizeParent=1;resizeParentMax=0;resizeLast=0;collapsible=1;marginBottom=0;whiteSpace=wrap;html=1;" parent="WIyWlLk6GJQsqaUBKTNV-1" vertex="1">
          <mxGeometry x="575" y="1200" width="190" height="120" as="geometry" />
        </mxCell>
        <mxCell id="bomawsoPxQ3AvJL3vk1d-25" value="- cityName: String&lt;br&gt;- countryName: String&lt;br&gt;- houseNumber: String&lt;br&gt;- street: String&lt;br&gt;- state: String" style="text;strokeColor=none;fillColor=none;align=left;verticalAlign=top;spacingLeft=4;spacingRight=4;overflow=hidden;rotatable=0;points=[[0,0.5],[1,0.5]];portConstraint=eastwest;whiteSpace=wrap;html=1;" parent="bomawsoPxQ3AvJL3vk1d-24" vertex="1">
          <mxGeometry y="26" width="190" height="94" as="geometry" />
        </mxCell>
        <mxCell id="bomawsoPxQ3AvJL3vk1d-26" value="&lt;b&gt;Admin&lt;/b&gt;" style="swimlane;fontStyle=0;childLayout=stackLayout;horizontal=1;startSize=26;fillColor=none;horizontalStack=0;resizeParent=1;resizeParentMax=0;resizeLast=0;collapsible=1;marginBottom=0;whiteSpace=wrap;html=1;" parent="WIyWlLk6GJQsqaUBKTNV-1" vertex="1">
          <mxGeometry x="635" y="240" width="140" height="120" as="geometry" />
        </mxCell>
        <mxCell id="eEb9qLzGj0JwlWNOs8kG-37" style="edgeStyle=orthogonalEdgeStyle;rounded=0;orthogonalLoop=1;jettySize=auto;html=1;entryX=0;entryY=0;entryDx=0;entryDy=0;" edge="1" parent="WIyWlLk6GJQsqaUBKTNV-1" source="bomawsoPxQ3AvJL3vk1d-1" target="bomawsoPxQ3AvJL3vk1d-10">
          <mxGeometry relative="1" as="geometry" />
        </mxCell>
        <mxCell id="eEb9qLzGj0JwlWNOs8kG-41" style="edgeStyle=orthogonalEdgeStyle;rounded=0;orthogonalLoop=1;jettySize=auto;html=1;entryX=0.5;entryY=0;entryDx=0;entryDy=0;" edge="1" parent="WIyWlLk6GJQsqaUBKTNV-1" source="bomawsoPxQ3AvJL3vk1d-1" target="bomawsoPxQ3AvJL3vk1d-26">
          <mxGeometry relative="1" as="geometry" />
        </mxCell>
        <mxCell id="eEb9qLzGj0JwlWNOs8kG-45" style="edgeStyle=orthogonalEdgeStyle;rounded=0;orthogonalLoop=1;jettySize=auto;html=1;entryX=1;entryY=0.5;entryDx=0;entryDy=0;" edge="1" parent="WIyWlLk6GJQsqaUBKTNV-1" source="bomawsoPxQ3AvJL3vk1d-7" target="bomawsoPxQ3AvJL3vk1d-8">
          <mxGeometry relative="1" as="geometry" />
        </mxCell>
        <mxCell id="eEb9qLzGj0JwlWNOs8kG-46" style="edgeStyle=orthogonalEdgeStyle;rounded=0;orthogonalLoop=1;jettySize=auto;html=1;entryX=0;entryY=0.5;entryDx=0;entryDy=0;" edge="1" parent="WIyWlLk6GJQsqaUBKTNV-1" source="bomawsoPxQ3AvJL3vk1d-7" target="bomawsoPxQ3AvJL3vk1d-18">
          <mxGeometry relative="1" as="geometry" />
        </mxCell>
        <mxCell id="eEb9qLzGj0JwlWNOs8kG-49" value="&amp;lt;&amp;lt;enumeration&amp;gt;&amp;gt;&lt;br&gt;&lt;br&gt;&lt;b&gt;ProductCategory&lt;/b&gt;" style="swimlane;fontStyle=0;childLayout=stackLayout;horizontal=1;startSize=50;fillColor=none;horizontalStack=0;resizeParent=1;resizeParentMax=0;resizeLast=0;collapsible=1;marginBottom=0;whiteSpace=wrap;html=1;" vertex="1" parent="WIyWlLk6GJQsqaUBKTNV-1">
          <mxGeometry x="25" y="1080" width="140" height="130" as="geometry" />
        </mxCell>
        <mxCell id="eEb9qLzGj0JwlWNOs8kG-50" value="ELECTRONICS&lt;br&gt;GROCERIES&lt;br&gt;UTENSILS&lt;br&gt;CLOTHING" style="text;strokeColor=none;fillColor=none;align=left;verticalAlign=top;spacingLeft=4;spacingRight=4;overflow=hidden;rotatable=0;points=[[0,0.5],[1,0.5]];portConstraint=eastwest;whiteSpace=wrap;html=1;" vertex="1" parent="eEb9qLzGj0JwlWNOs8kG-49">
          <mxGeometry y="50" width="140" height="80" as="geometry" />
        </mxCell>
        <mxCell id="eEb9qLzGj0JwlWNOs8kG-62" style="edgeStyle=orthogonalEdgeStyle;rounded=0;orthogonalLoop=1;jettySize=auto;html=1;entryX=0.55;entryY=0.006;entryDx=0;entryDy=0;entryPerimeter=0;" edge="1" parent="WIyWlLk6GJQsqaUBKTNV-1" source="bomawsoPxQ3AvJL3vk1d-20" target="bomawsoPxQ3AvJL3vk1d-22">
          <mxGeometry relative="1" as="geometry" />
        </mxCell>
        <mxCell id="eEb9qLzGj0JwlWNOs8kG-64" value="Extends" style="endArrow=block;endSize=16;endFill=0;html=1;rounded=0;entryX=1;entryY=0.5;entryDx=0;entryDy=0;exitX=0;exitY=0.5;exitDx=0;exitDy=0;" edge="1" parent="WIyWlLk6GJQsqaUBKTNV-1" source="bomawsoPxQ3AvJL3vk1d-26" target="bomawsoPxQ3AvJL3vk1d-5">
          <mxGeometry width="160" relative="1" as="geometry">
            <mxPoint x="550" y="180" as="sourcePoint" />
            <mxPoint x="710" y="180" as="targetPoint" />
          </mxGeometry>
        </mxCell>
        <mxCell id="eEb9qLzGj0JwlWNOs8kG-65" value="Extends" style="endArrow=block;endSize=16;endFill=0;html=1;rounded=0;exitX=0.5;exitY=0;exitDx=0;exitDy=0;" edge="1" parent="WIyWlLk6GJQsqaUBKTNV-1" source="bomawsoPxQ3AvJL3vk1d-6">
          <mxGeometry width="160" relative="1" as="geometry">
            <mxPoint x="310" y="360" as="sourcePoint" />
            <mxPoint x="440" y="250" as="targetPoint" />
          </mxGeometry>
        </mxCell>
        <mxCell id="eEb9qLzGj0JwlWNOs8kG-68" style="edgeStyle=orthogonalEdgeStyle;rounded=0;orthogonalLoop=1;jettySize=auto;html=1;entryX=0;entryY=0.047;entryDx=0;entryDy=0;entryPerimeter=0;" edge="1" parent="WIyWlLk6GJQsqaUBKTNV-1" source="bomawsoPxQ3AvJL3vk1d-0" target="bomawsoPxQ3AvJL3vk1d-7">
          <mxGeometry relative="1" as="geometry" />
        </mxCell>
        <mxCell id="eEb9qLzGj0JwlWNOs8kG-69" value="Extends" style="endArrow=block;endSize=16;endFill=0;html=1;rounded=0;entryX=0;entryY=0.5;entryDx=0;entryDy=0;exitX=0.5;exitY=0;exitDx=0;exitDy=0;" edge="1" parent="WIyWlLk6GJQsqaUBKTNV-1" source="bomawsoPxQ3AvJL3vk1d-10" target="bomawsoPxQ3AvJL3vk1d-5">
          <mxGeometry width="160" relative="1" as="geometry">
            <mxPoint x="110" y="200" as="sourcePoint" />
            <mxPoint x="270" y="200" as="targetPoint" />
          </mxGeometry>
        </mxCell>
      </root>
    </mxGraphModel>
  </diagram>
</mxfile>
